<?xml version="1.0" standalone="no"?>
<!DOCTYPE svg PUBLIC "-//W3C//DTD SVG 20010904//EN"
 "http://www.w3.org/TR/2001/REC-SVG-20010904/DTD/svg10.dtd">
<svg version="1.0" xmlns="http://www.w3.org/2000/svg"
 width="421.000000pt" height="421.000000pt" viewBox="0 0 421.000000 421.000000"
 preserveAspectRatio="xMidYMid meet">
<metadata>
Created by potrace 1.11, written by Peter Selinger 2001-2013
</metadata>
<g transform="translate(0.000000,421.000000) scale(0.100000,-0.100000)"
fill="#000000" stroke="none">
<path d="M3180 4172 c-41 -20 -122 -59 -180 -86 -183 -86 -322 -152 -427 -204
-56 -27 -112 -53 -125 -57 -35 -11 -108 -67 -108 -82 0 -8 -6 -24 -14 -36 -8
-12 -29 -65 -46 -117 -47 -139 -59 -162 -80 -155 -63 20 -131 21 -191 4 -49
-14 -59 -24 -59 -56 0 -13 -3 -23 -8 -23 -4 0 -6 -20 -4 -45 4 -41 7 -47 41
-62 20 -9 43 -17 51 -17 8 -1 22 -6 30 -11 15 -9 34 -15 58 -17 18 -2 15 -18
-18 -110 -17 -46 -32 -87 -34 -93 -2 -5 -10 -27 -20 -47 -9 -21 -16 -41 -16
-46 0 -5 -49 -8 -110 -8 -60 0 -110 4 -110 9 0 4 16 56 36 114 27 83 35 123
36 182 1 149 -21 259 -75 366 -48 98 -94 131 -196 141 -82 9 -156 -28 -208
-103 -20 -29 -41 -53 -47 -54 -6 -1 -24 -2 -41 -4 -16 -1 -31 -4 -32 -5 -2 -1
-9 -3 -15 -4 -23 -4 -38 16 -38 50 0 38 -6 41 -38 18 l-23 -16 4 48 c3 27 8
61 12 77 5 17 3 27 -4 27 -6 0 -13 -10 -16 -22 -10 -46 -16 -84 -18 -110 -3
-40 -19 -52 -43 -31 -11 10 -26 19 -33 21 -20 4 -80 63 -97 95 -16 30 -34 36
-29 10 2 -10 4 -26 4 -35 1 -9 8 -24 17 -33 9 -9 14 -18 11 -21 -9 -10 -65 25
-70 43 -4 16 -5 16 -6 1 0 -9 10 -28 24 -40 l25 -24 -42 -18 c-55 -23 -96 -73
-120 -144 -22 -67 -25 -122 -7 -183 7 -24 13 -46 14 -49 1 -3 9 -22 18 -44 9
-21 17 -47 17 -57 0 -10 5 -30 10 -45 6 -15 11 -43 12 -63 2 -91 76 -130 140
-73 13 11 21 12 31 3 12 -9 12 -22 1 -78 -42 -231 -50 -741 -15 -1038 18 -148
22 -180 37 -243 20 -91 20 -92 -26 -92 -25 0 -43 -5 -46 -13 -3 -9 -18 -13
-42 -11 -47 3 -93 -16 -144 -61 -23 -19 -47 -35 -54 -35 -15 0 -110 -97 -134
-137 -9 -16 -31 -43 -47 -62 -56 -61 -59 -72 -30 -135 27 -58 25 -68 -8 -56
-13 5 -24 1 -35 -12 -8 -10 -24 -19 -35 -21 -11 -1 -27 -7 -36 -12 -24 -14
-59 -89 -59 -126 0 -28 -15 -72 -41 -121 -5 -10 -9 -27 -9 -39 0 -29 53 -94
90 -109 16 -7 30 -15 30 -19 0 -7 -96 -51 -111 -51 -16 0 -10 -39 16 -100 14
-33 25 -68 25 -79 0 -11 7 -26 15 -35 8 -8 15 -24 15 -36 0 -38 28 -77 67 -93
21 -8 40 -15 43 -15 3 0 18 -6 34 -12 16 -6 45 -13 65 -16 37 -5 63 -10 136
-27 17 -4 50 -9 74 -12 24 -3 53 -11 64 -17 29 -15 228 -20 302 -7 33 6 71 12
85 14 54 8 93 17 109 24 9 5 41 17 71 26 30 10 66 26 80 35 14 10 51 31 82 48
31 17 67 40 80 51 127 106 171 147 183 171 12 23 21 27 60 28 96 4 267 53 322
91 12 9 23 27 23 40 0 15 5 21 13 18 10 -4 13 2 9 19 -4 20 13 90 35 144 10
24 18 52 88 305 8 28 17 65 20 84 3 19 8 37 10 40 2 4 6 25 9 47 4 22 8 49 10
59 12 63 36 195 40 228 20 128 22 135 31 91 42 -204 175 -479 331 -689 51 -68
193 -212 244 -248 102 -71 194 -130 249 -157 45 -23 59 -35 50 -41 -8 -5 -22
-9 -31 -9 -21 0 -24 -23 -5 -38 48 -39 236 -50 325 -18 23 8 46 15 50 15 10 0
52 41 52 52 0 5 6 9 14 9 23 0 104 89 137 150 50 92 62 170 56 354 -3 89 -8
171 -10 183 -3 12 -8 47 -12 78 -9 85 -69 255 -145 411 -81 166 -114 212 -255
355 -91 94 -183 165 -310 241 -6 3 -46 9 -90 13 -92 8 -111 11 -125 20 -6 3
-46 6 -91 6 -71 0 -88 -4 -154 -36 -105 -50 -255 -203 -255 -260 0 -8 -4 -15
-9 -15 -5 0 -9 39 -10 88 -1 140 -11 308 -25 407 -3 22 -11 83 -17 135 -6 52
-12 102 -14 110 -5 37 -19 126 -21 133 -1 4 -2 14 -3 22 -1 16 -38 34 -81 40
-105 13 -161 18 -197 19 -34 0 -43 4 -43 18 0 19 20 75 51 145 10 24 19 50 19
58 0 8 4 15 8 15 5 0 23 20 41 45 23 32 39 45 54 44 42 -4 56 1 62 21 4 12 1
28 -6 36 -9 11 -9 18 -1 26 9 9 19 5 43 -18 30 -29 31 -29 150 -28 65 0 129 6
142 12 12 6 51 20 87 32 92 30 110 44 110 84 0 25 -6 35 -25 44 -14 6 -25 16
-25 22 0 5 -7 10 -15 10 -7 0 -19 8 -24 18 -6 9 -11 13 -11 8 0 -5 -11 1 -24
14 -14 12 -32 20 -40 17 -9 -4 -18 -2 -20 2 -7 10 -58 22 -110 26 -27 2 -55
-5 -87 -21 -26 -14 -57 -26 -69 -27 -14 -1 -32 -16 -46 -38 -13 -21 -28 -40
-34 -44 -5 -3 -10 -17 -10 -31 0 -14 -8 -34 -19 -45 -17 -19 -19 -19 -26 -2
-10 22 -10 33 -1 58 5 11 30 79 58 150 53 139 69 164 127 191 20 9 131 63 246
119 116 57 246 119 290 140 217 102 251 118 261 126 8 7 7 19 -4 44 -9 19 -19
35 -22 35 -3 0 -39 -17 -80 -38z"/>
</g>
</svg>
